<svg xmlns="http://www.w3.org/2000/svg" viewBox="0 0 161.15 72.98"><defs><style>.cls-1{fill:#009051;}</style></defs><g id="Layer_2" data-name="Layer 2"><g id="Layer_1-2" data-name="Layer 1"><polygon class="cls-1" points="0 40.95 0 42.3 4.06 42.3 4.06 53.85 5.73 53.85 5.73 42.3 9.79 42.3 9.79 40.95 0 40.95"/><polygon class="cls-1" points="15.46 53.85 13.72 53.85 19.2 40.94 21.05 40.94 26.56 53.85 24.71 53.85 23.04 49.79 18.77 49.79 19.23 48.44 22.48 48.44 20.07 42.59 15.46 53.85"/><rect class="cls-1" x="33.21" y="40.94" width="1.67" height="12.91"/><polygon class="cls-1" points="54.37 40.95 48.89 53.85 47.04 53.85 41.53 40.95 43.29 40.95 48.02 52.12 52.64 40.95 54.37 40.95"/><polygon class="cls-1" points="59.81 53.85 58.07 53.85 63.55 40.94 65.4 40.94 70.91 53.85 69.06 53.85 67.39 49.79 63.12 49.79 63.58 48.44 66.83 48.44 64.42 42.59 59.81 53.85"/><polygon class="cls-1" points="78.96 40.95 78.96 52.5 85.71 52.5 85.71 53.85 77.29 53.85 77.29 40.95 78.96 40.95"/><polygon class="cls-1" points="93.99 40.95 93.99 52.5 100.74 52.5 100.74 53.85 92.32 53.85 92.32 40.95 93.99 40.95"/><polygon class="cls-1" points="107.77 53.85 106.04 53.85 111.52 40.94 113.37 40.94 118.87 53.85 117.02 53.85 115.35 49.79 111.08 49.79 111.55 48.44 114.79 48.44 112.38 42.59 107.77 53.85"/><polygon class="cls-1" points="125.26 53.85 125.26 40.94 126.93 40.94 126.93 46.63 134.55 46.63 134.55 40.94 136.22 40.94 136.22 53.85 134.55 53.85 134.55 47.98 126.93 47.98 126.93 53.85 125.26 53.85"/><polygon class="cls-1" points="152.61 40.95 152.61 42.3 148.54 42.3 148.54 53.85 146.87 53.85 146.87 42.3 142.81 42.3 142.81 40.95 152.61 40.95"/><rect class="cls-1" x="159.48" y="40.94" width="1.67" height="12.91"/><polygon class="cls-1" points="25.32 64.44 25.32 65.81 27.74 65.81 27.74 72.92 29.31 72.92 29.31 65.81 31.74 65.81 31.74 64.44 25.32 64.44"/><polygon class="cls-1" points="34.45 64.44 34.45 72.92 40.33 72.92 40.33 71.55 35.99 71.55 35.99 69.33 40.05 69.33 40.05 67.93 36.01 67.93 36.01 65.8 40.25 65.8 40.25 64.44 34.45 64.44"/><polygon class="cls-1" points="49.63 64.44 49.63 70.62 45.16 64.44 43.59 64.44 43.59 72.92 45.1 72.92 45.1 66.61 49.57 72.92 51.14 72.92 51.14 64.44 49.63 64.44"/><polygon class="cls-1" points="60.77 64.44 60.77 70.62 56.3 64.44 54.73 64.44 54.73 72.92 56.24 72.92 56.24 66.61 60.71 72.92 62.28 72.92 62.28 64.44 60.77 64.44"/><rect class="cls-1" x="65.87" y="64.44" width="1.57" height="8.47"/><path class="cls-1" d="M70.88,72.56V71.14a8.36,8.36,0,0,0,2.88.47c1.3,0,1.95-.43,1.95-1.3,0-.63-.4-1-1.2-1H73.19c-1.74,0-2.6-.79-2.6-2.37s1.23-2.6,3.7-2.6A8.51,8.51,0,0,1,77,64.8v1.42a7.76,7.76,0,0,0-2.69-.47c-1.42,0-2.13.41-2.13,1.24,0,.63.34,1,1,1h1.32c1.85,0,2.77.79,2.77,2.37q0,2.67-3.52,2.67a9.18,9.18,0,0,1-2.88-.42"/><path class="cls-1" d="M82,72.92H80.42V64.44H82Zm6-8.48-3.61,4,4,4.52H86.16l-3.28-4v-1L86,64.44Z"/><polygon class="cls-1" points="96.54 64.44 96.54 65.8 92.3 65.8 92.3 67.93 96.34 67.93 96.34 69.33 92.28 69.33 92.28 71.55 96.62 71.55 96.62 72.92 90.74 72.92 90.74 64.44 96.54 64.44"/><path class="cls-1" d="M99.73,72.56V71.14a8.36,8.36,0,0,0,2.88.47c1.3,0,2-.43,2-1.3,0-.63-.4-1-1.2-1H102c-1.74,0-2.6-.79-2.6-2.37s1.23-2.6,3.7-2.6a8.57,8.57,0,0,1,2.7.41v1.42a7.82,7.82,0,0,0-2.7-.47c-1.42,0-2.13.41-2.13,1.24,0,.63.34,1,1,1h1.32c1.85,0,2.77.79,2.77,2.37q0,2.67-3.52,2.67a9.18,9.18,0,0,1-2.88-.42"/><path class="cls-1" d="M110.85,72.92h-1.57V64.44h1.57Zm6-8.48-3.61,4,4,4.52H115l-3.28-4v-1l3.15-3.5Z"/><path class="cls-1" d="M119.6,69.59V64.45h1.57v5.14a2.08,2.08,0,0,0,4.15,0V64.45h1.57v5.14c0,2.26-1.21,3.38-3.64,3.38s-3.65-1.12-3.65-3.38"/><path class="cls-1" d="M130.33,72.56V71.14a8.26,8.26,0,0,0,2.87.47c1.3,0,2-.43,2-1.3,0-.63-.4-1-1.19-1h-1.33c-1.73,0-2.6-.79-2.6-2.37s1.23-2.6,3.7-2.6a8.57,8.57,0,0,1,2.7.41v1.42a7.82,7.82,0,0,0-2.7-.47c-1.42,0-2.13.41-2.13,1.24,0,.63.34,1,1,1H134q2.76,0,2.76,2.37,0,2.67-3.52,2.67a9.07,9.07,0,0,1-2.87-.42"/><path class="cls-1" d="M136.33,30H26.23V20.21L81.51,0l54.82,20.29Zm-109-1.15H135.17V21.09L81.51,1.23,27.38,21Z"/><rect class="cls-1" x="38.32" y="16.26" width="0.58" height="13.49"/><rect class="cls-1" x="123.88" y="16.26" width="0.58" height="13.49"/><rect class="cls-1" x="116.1" y="13.66" width="0.58" height="16.09"/><rect class="cls-1" x="108.32" y="10.58" width="0.58" height="19.17"/><rect class="cls-1" x="100.55" y="7.5" width="0.58" height="22.24"/><rect class="cls-1" x="92.77" y="4.67" width="0.58" height="25.08"/><rect class="cls-1" x="69.43" y="4.67" width="0.58" height="25.08"/><rect class="cls-1" x="61.66" y="7.74" width="0.58" height="22.01"/><rect class="cls-1" x="53.88" y="10.58" width="0.58" height="19.17"/><rect class="cls-1" x="46.1" y="13.42" width="0.58" height="16.33"/><rect class="cls-1" x="68.43" y="4.98" width="26.01" height="0.58"/><path class="cls-1" d="M77.79,7.34V1.82h-.58v5.8l.58-.28"/><path class="cls-1" d="M77.21,24v5.79h.58V24.23c-.2-.08-.39-.18-.58-.27"/><path class="cls-1" d="M81.28,25.82A9.81,9.81,0,1,1,91.08,16a9.82,9.82,0,0,1-9.8,9.81m0-18.46A8.65,8.65,0,1,0,89.93,16a8.66,8.66,0,0,0-8.65-8.65"/><path class="cls-1" d="M85.48,24.67l-.54-.2s.29-.9-.8-2a6.14,6.14,0,0,0-2.53-1.17c-2.27-.69-5.11-1.55-4-6.27a5.21,5.21,0,0,1,3-4.08c3.9-1.56,9.75,2.34,10,2.51l-.33.48c-.06,0-5.84-3.9-9.46-2.45a4.68,4.68,0,0,0-2.67,3.66c-.94,4.2,1.3,4.88,3.66,5.6a6.5,6.5,0,0,1,2.77,1.31,2.57,2.57,0,0,1,.93,2.61"/><path class="cls-1" d="M85.57,7.51V1.83H85V7.25l.58.26"/><path class="cls-1" d="M85,24.33v5.42h.58V24.06a6.11,6.11,0,0,1-.58.27"/><path class="cls-1" d="M72.62,13.31H45.81v.58H72.47c0-.2.1-.39.15-.58"/><path class="cls-1" d="M90.39,13.31c0,.19.1.38.14.58h26v-.58Z"/><path class="cls-1" d="M74.37,21.64h-36v.58H74.89c-.18-.19-.36-.38-.52-.58"/><path class="cls-1" d="M88.64,21.64c-.17.2-.35.39-.53.58h36.22v-.58Z"/></g></g></svg>