<svg xmlns="http://www.w3.org/2000/svg" xmlns:xlink="http://www.w3.org/1999/xlink" viewBox="0 0 197.06 57.9"><defs><style>.cls-1{fill:none;}.cls-2{clip-path:url(#clip-path);}.cls-3{fill:#005ecb;}</style><clipPath id="clip-path" transform="translate(0 0)"><rect class="cls-1" width="197.06" height="57.9"/></clipPath></defs><g id="Layer_2" data-name="Layer 2"><g id="Layer_1-2" data-name="Layer 1"><g class="cls-2"><path class="cls-3" d="M0,.33H14.5l0,4.85h-.69a4.41,4.41,0,0,0-1.95-3.52,6.05,6.05,0,0,0-2.7-.56V13.77a2.45,2.45,0,0,0,.46,1.76,3,3,0,0,0,1.93.43v.61H3V16a2.8,2.8,0,0,0,1.88-.45,2.42,2.42,0,0,0,.46-1.75V1.1a6.26,6.26,0,0,0-2.7.56A4.07,4.07,0,0,0,.69,5.18H0Z" transform="translate(0 0)"/><path class="cls-3" d="M24,10.91,21.71,5.34h-.2l-2.17,5.57ZM15,16a1.83,1.83,0,0,0,1.4-.78,11.6,11.6,0,0,0,1-2L22.71,0h.67l5.37,12.63a16.44,16.44,0,0,0,1.35,2.74,1.41,1.41,0,0,0,1.26.6v.61H23.58V16a5.85,5.85,0,0,0,1.54-.2c.25-.11.37-.36.37-.78a3.26,3.26,0,0,0-.18-.86c-.08-.22-.19-.5-.32-.82l-.61-1.45H19c-.35,1-.58,1.57-.68,1.86A4.91,4.91,0,0,0,18,15.07q0,.52.69.75a4.25,4.25,0,0,0,1.24.14v.61H15Z" transform="translate(0 0)"/><path class="cls-3" d="M33.27,16a3.62,3.62,0,0,0,1.41-.25,1.47,1.47,0,0,0,.72-1.44V2.63a1.45,1.45,0,0,0-.68-1.41A3.71,3.71,0,0,0,33.27.94V.33h8.41V.94a3.82,3.82,0,0,0-2,.41c-.32.24-.48.84-.48,1.78V14.5a1.15,1.15,0,0,0,.41,1.05,3.48,3.48,0,0,0,1.63.26,6.51,6.51,0,0,0,3.64-1,7.45,7.45,0,0,0,2.54-3.72h.71l-1,5.44H33.27Z" transform="translate(0 0)"/><path class="cls-3" d="M49.38,16a3.63,3.63,0,0,0,1.47-.24,1.48,1.48,0,0,0,.73-1.45V2.63a1.43,1.43,0,0,0-.7-1.42,3.83,3.83,0,0,0-1.5-.27V.33h8.41V.94a4.26,4.26,0,0,0-1.55.26,1.46,1.46,0,0,0-.71,1.43V14.27a1.46,1.46,0,0,0,.57,1.36,3.4,3.4,0,0,0,1.69.34v.61H49.38Z" transform="translate(0 0)"/><path class="cls-3" d="M58.86,16a2.27,2.27,0,0,0,1.72-.51,2.14,2.14,0,0,0,.39-1.4V2.67a18.42,18.42,0,0,0-1.36-1.45,1.31,1.31,0,0,0-.7-.28V.33H64l8.26,10h.12V3.31a2.74,2.74,0,0,0-.44-1.74A2.58,2.58,0,0,0,70.16.94V.33h5.17V.94a3.37,3.37,0,0,0-1.51.5c-.26.21-.38.68-.38,1.41V17h-.67L62.19,4.17H62v9.42a3,3,0,0,0,.3,1.57,2.31,2.31,0,0,0,2,.81v.61H58.86V16Z" transform="translate(0 0)"/><path class="cls-3" d="M0,20.61H14.5l0,4.85h-.69a4.42,4.42,0,0,0-1.95-3.52,5.94,5.94,0,0,0-2.7-.55V34.05a2.48,2.48,0,0,0,.46,1.77,3.06,3.06,0,0,0,1.93.43v.61H3v-.61a2.87,2.87,0,0,0,1.88-.44,2.45,2.45,0,0,0,.46-1.76V21.39a6.13,6.13,0,0,0-2.7.55A4.08,4.08,0,0,0,.69,25.46H0Z" transform="translate(0 0)"/><path class="cls-3" d="M15.93,36.86v-.61A3.44,3.44,0,0,0,17.4,36a1.48,1.48,0,0,0,.67-1.41V22.91a1.44,1.44,0,0,0-.69-1.41,3.91,3.91,0,0,0-1.45-.28v-.61H29.78v4.85H29.2a5.22,5.22,0,0,0-1.56-3.18,6.76,6.76,0,0,0-4-.86,2.74,2.74,0,0,0-1.41.23,1.1,1.1,0,0,0-.3.91v5.57a3.82,3.82,0,0,0,2.79-.75,5.81,5.81,0,0,0,1.11-2.81h.61v8.12h-.61a5.15,5.15,0,0,0-1.05-2.89A3.85,3.85,0,0,0,21.94,29v5.82a1.17,1.17,0,0,0,.4,1A3,3,0,0,0,24,36.1a7.07,7.07,0,0,0,3.76-.9,7.32,7.32,0,0,0,2.58-3.34H31l-1,5Z" transform="translate(0 0)"/><path class="cls-3" d="M32.09,36.25a2.33,2.33,0,0,0,1.72-.51,2.18,2.18,0,0,0,.39-1.4V23c-.74-.82-1.19-1.3-1.36-1.45a1.39,1.39,0,0,0-.71-.27v-.62h5.1l8.26,10.05h.12V23.6a2.75,2.75,0,0,0-.44-1.75,2.64,2.64,0,0,0-1.78-.62v-.62h5.17v.61a3.48,3.48,0,0,0-1.51.51c-.26.21-.38.68-.38,1.41V37.31H46L35.42,24.45h-.16v9.43a3,3,0,0,0,.3,1.57,2.3,2.3,0,0,0,2,.8v.61H32.09Z" transform="translate(0 0)"/><path class="cls-3" d="M49.57,36.25a2.31,2.31,0,0,0,1.72-.51,2.18,2.18,0,0,0,.39-1.4V23c-.73-.82-1.19-1.3-1.36-1.45a1.39,1.39,0,0,0-.7-.27v-.62h5.09L63,30.66h.12V23.6a2.75,2.75,0,0,0-.44-1.75,2.64,2.64,0,0,0-1.78-.62v-.62H66v.61a3.43,3.43,0,0,0-1.51.51c-.26.21-.38.68-.38,1.41V37.31h-.67L52.9,24.45h-.16v9.43a3,3,0,0,0,.3,1.57,2.3,2.3,0,0,0,2,.8v.61H49.57Z" transform="translate(0 0)"/><path class="cls-3" d="M67.05,36.25A3.78,3.78,0,0,0,68.52,36a1.47,1.47,0,0,0,.72-1.44V22.91a1.46,1.46,0,0,0-.69-1.42,4,4,0,0,0-1.5-.27v-.61h8.4v.61a4.31,4.31,0,0,0-1.55.26,1.46,1.46,0,0,0-.7,1.44V34.56a1.47,1.47,0,0,0,.56,1.35,3.31,3.31,0,0,0,1.69.34v.61h-8.4v-.61Z" transform="translate(0 0)"/><path class="cls-3" d="M102.82,36.52a3.52,3.52,0,0,0,1.4-.26,1.48,1.48,0,0,0,.69-1.43V23.18a1.47,1.47,0,0,0-.63-1.4,4,4,0,0,0-1.46-.29v-.61H111v.61a3.21,3.21,0,0,0-1.68.47c-.29.24-.43.82-.43,1.73v5.15L114,23.6a6.79,6.79,0,0,0,.7-.77,1,1,0,0,0,.15-.55.55.55,0,0,0-.41-.59,9,9,0,0,0-1.61-.2v-.61h7v.61a5.94,5.94,0,0,0-3.09,1.06,50.27,50.27,0,0,0-4.65,4.4L119.41,36a1,1,0,0,0,.46.36,2.92,2.92,0,0,0,.72.13v.61h-8.07v-.61a8.65,8.65,0,0,0,1.49-.1c.27-.05.4-.19.4-.41a.84.84,0,0,0-.13-.39,4.85,4.85,0,0,0-.46-.65l-4.36-5.46-.61.61v4.71a1.46,1.46,0,0,0,.69,1.42,3.39,3.39,0,0,0,1.39.27v.61h-8.11v-.61Z" transform="translate(0 0)"/><path class="cls-3" d="M120.59,37.13v-.61a3.41,3.41,0,0,0,1.47-.29,1.45,1.45,0,0,0,.67-1.4V23.18a1.44,1.44,0,0,0-.69-1.41,3.71,3.71,0,0,0-1.45-.28v-.61h13.85v4.85h-.58a5.22,5.22,0,0,0-1.56-3.18c-.73-.57-2.06-.86-4-.86a2.72,2.72,0,0,0-1.4.23,1.1,1.1,0,0,0-.3.91v5.56a3.74,3.74,0,0,0,2.78-.74,5.7,5.7,0,0,0,1.12-2.81h.61V33h-.61a5.12,5.12,0,0,0-1.05-2.89,3.85,3.85,0,0,0-2.85-.84v5.82a1.19,1.19,0,0,0,.39,1,3.2,3.2,0,0,0,1.62.27,7,7,0,0,0,3.75-.89A7.39,7.39,0,0,0,135,32.13h.67l-1,5Z" transform="translate(0 0)"/><path class="cls-3" d="M136.36,31.52h.69a7.45,7.45,0,0,0,1.86,3.91,4.11,4.11,0,0,0,2.93,1.23,2.61,2.61,0,0,0,3-2.61,2.3,2.3,0,0,0-.71-1.76,8.27,8.27,0,0,0-1.89-1.16l-1.53-.78a10.31,10.31,0,0,1-3.22-2.28,4.23,4.23,0,0,1-.94-2.78A5.15,5.15,0,0,1,137.75,22a4.62,4.62,0,0,1,3.81-1.53,8.2,8.2,0,0,1,2.52.4,8.69,8.69,0,0,0,1.39.4A.6.6,0,0,0,146,21a1.87,1.87,0,0,0,.24-.6H147v5.23h-.67a7.28,7.28,0,0,0-1.66-3.13,3.73,3.73,0,0,0-2.88-1.32,2.58,2.58,0,0,0-1.89.67,2.38,2.38,0,0,0,0,3.31,15,15,0,0,0,2.86,1.7l1.78.89a6.92,6.92,0,0,1,1.89,1.33,4.56,4.56,0,0,1,1.32,3.3,5.17,5.17,0,0,1-1.42,3.44,5.74,5.74,0,0,1-4.53,1.61,8,8,0,0,1-1.45-.14,8.49,8.49,0,0,1-1.45-.41l-.46-.18-.31-.08-.26,0a.59.59,0,0,0-.51.22,2.36,2.36,0,0,0-.24.62h-.69V31.52Z" transform="translate(0 0)"/><path class="cls-3" d="M148.77,36.52a3.5,3.5,0,0,0,1.39-.26,1.48,1.48,0,0,0,.69-1.43V23.18a1.47,1.47,0,0,0-.63-1.4,4,4,0,0,0-1.45-.29v-.61h8.13v.61a3.21,3.21,0,0,0-1.68.47c-.29.24-.43.82-.43,1.73v5.15L160,23.6a6.79,6.79,0,0,0,.7-.77,1,1,0,0,0,.16-.55.56.56,0,0,0-.42-.59,8.84,8.84,0,0,0-1.61-.2v-.61h7v.61a5.94,5.94,0,0,0-3.09,1.06A50.27,50.27,0,0,0,158,27L165.35,36a1.1,1.1,0,0,0,.46.36,2.82,2.82,0,0,0,.71.13v.61h-8.06v-.61a8.75,8.75,0,0,0,1.49-.1c.26-.05.4-.19.4-.41a.84.84,0,0,0-.13-.39,4.85,4.85,0,0,0-.46-.65l-4.37-5.46-.61.61v4.71a1.47,1.47,0,0,0,.7,1.42,3.39,3.39,0,0,0,1.39.27v.61h-8.11v-.61Z" transform="translate(0 0)"/><path class="cls-3" d="M175.71,20.88v.61a3.34,3.34,0,0,0-1.86.43c-.32.26-.47.85-.47,1.77v8a7.36,7.36,0,0,0,.43,2.84,3,3,0,0,0,3,1.85,3.74,3.74,0,0,0,3.74-2,7.49,7.49,0,0,0,.54-3.16V23.86a2.6,2.6,0,0,0-.47-1.78,3,3,0,0,0-1.86-.59v-.61h5.28v.61a3.47,3.47,0,0,0-1.52.55c-.25.21-.37.71-.37,1.48v7.69a6.88,6.88,0,0,1-1.48,4.73A5.93,5.93,0,0,1,176,37.61q-4.14,0-5.67-2.48a6.41,6.41,0,0,1-.81-3.4v-8A2.61,2.61,0,0,0,169.2,22a3,3,0,0,0-1.61-.49v-.61Z" transform="translate(0 0)"/><path class="cls-3" d="M185.74,31.52h.7a7.45,7.45,0,0,0,1.85,3.91,4.11,4.11,0,0,0,2.93,1.23,2.62,2.62,0,0,0,3-2.61,2.3,2.3,0,0,0-.71-1.76,8.27,8.27,0,0,0-1.89-1.16l-1.53-.78a10.31,10.31,0,0,1-3.22-2.28,4.22,4.22,0,0,1-.93-2.78A5.14,5.14,0,0,1,187.13,22a4.62,4.62,0,0,1,3.81-1.53,8.2,8.2,0,0,1,2.52.4,9,9,0,0,0,1.39.4.6.6,0,0,0,.54-.23,2.12,2.12,0,0,0,.25-.6h.71v5.23h-.67A7.28,7.28,0,0,0,194,22.54a3.73,3.73,0,0,0-2.88-1.32,2.6,2.6,0,0,0-1.89.67,2.38,2.38,0,0,0,0,3.31,15,15,0,0,0,2.86,1.7l1.78.89a6.92,6.92,0,0,1,1.89,1.33,4.56,4.56,0,0,1,1.32,3.3,5.12,5.12,0,0,1-1.42,3.44,5.74,5.74,0,0,1-4.53,1.61,8,8,0,0,1-1.45-.14,8.49,8.49,0,0,1-1.45-.41l-.46-.18-.31-.08-.25,0a.56.56,0,0,0-.51.22,2,2,0,0,0-.25.62h-.69Z" transform="translate(0 0)"/><path class="cls-3" d="M109.56,41.42a12.64,12.64,0,0,0,1.71.56.86.86,0,0,0,.73-.36,1.63,1.63,0,0,0,.35-.74H113v5.63h-.61a13.2,13.2,0,0,0-1.77-2.89,5,5,0,0,0-3.82-1.95,3.51,3.51,0,0,0-3.43,2.08,12.88,12.88,0,0,0-1,5.6,12.73,12.73,0,0,0,.6,4.25,4.14,4.14,0,0,0,4.14,3.12,6.27,6.27,0,0,0,3.44-1,12.93,12.93,0,0,0,2.16-1.92l.72.59A13.78,13.78,0,0,1,111,56.64a7.5,7.5,0,0,1-4.23,1.26,8.73,8.73,0,0,1-6-2.12,7.94,7.94,0,0,1-2.66-6.29,8.41,8.41,0,0,1,2.54-6.35,8.21,8.21,0,0,1,5.87-2.28,9,9,0,0,1,3,.56" transform="translate(0 0)"/><path class="cls-3" d="M114.77,57.41V56.8a3.44,3.44,0,0,0,1.47-.28,1.47,1.47,0,0,0,.67-1.41V43.46a1.43,1.43,0,0,0-.69-1.4,3.54,3.54,0,0,0-1.45-.28v-.62h13.86V46H128a5.22,5.22,0,0,0-1.56-3.18,6.76,6.76,0,0,0-4-.86,2.74,2.74,0,0,0-1.41.23,1.15,1.15,0,0,0-.3.91v5.57a3.82,3.82,0,0,0,2.79-.75,5.81,5.81,0,0,0,1.11-2.81h.61v8.12h-.61a5.15,5.15,0,0,0-1.05-2.89,3.85,3.85,0,0,0-2.85-.84v5.82a1.17,1.17,0,0,0,.4,1,3.15,3.15,0,0,0,1.61.28,7.17,7.17,0,0,0,3.76-.89,7.41,7.41,0,0,0,2.58-3.35h.67l-1,5Z" transform="translate(0 0)"/><path class="cls-3" d="M130.62,56.8a2.33,2.33,0,0,0,1.72-.51,2.16,2.16,0,0,0,.39-1.4V43.5c-.74-.82-1.19-1.3-1.36-1.45a1.24,1.24,0,0,0-.71-.27v-.62h5.1L144,51.21h.12V44.15a2.68,2.68,0,0,0-.45-1.75,2.54,2.54,0,0,0-1.77-.62v-.61h5.17v.61a3.32,3.32,0,0,0-1.51.5c-.26.21-.38.68-.38,1.41V57.86h-.67L134,45h-.16v9.42a3,3,0,0,0,.3,1.57,2.27,2.27,0,0,0,2,.8v.61h-5.44Z" transform="translate(0 0)"/><path class="cls-3" d="M148,41.16H162.5l0,4.85h-.69a4.42,4.42,0,0,0-2-3.52,6,6,0,0,0-2.7-.55V54.6a2.41,2.41,0,0,0,.46,1.76,2.9,2.9,0,0,0,1.93.44v.61H151V56.8a2.87,2.87,0,0,0,1.88-.44,2.45,2.45,0,0,0,.46-1.76V41.94a6.27,6.27,0,0,0-2.7.55,4.08,4.08,0,0,0-2,3.52H148Z" transform="translate(0 0)"/><path class="cls-3" d="M163.63,57.41V56.8a3.47,3.47,0,0,0,1.47-.28,1.48,1.48,0,0,0,.67-1.41V43.46a1.44,1.44,0,0,0-.7-1.4,3.44,3.44,0,0,0-1.44-.28v-.62h13.85V46h-.59a5.16,5.16,0,0,0-1.55-3.18,6.8,6.8,0,0,0-4-.86,2.69,2.69,0,0,0-1.4.23,1.12,1.12,0,0,0-.3.91v5.57a3.78,3.78,0,0,0,2.78-.75,5.8,5.8,0,0,0,1.12-2.81h.61v8.12h-.61a5.22,5.22,0,0,0-1.06-2.89,3.81,3.81,0,0,0-2.84-.84v5.82a1.19,1.19,0,0,0,.39,1,3.15,3.15,0,0,0,1.61.28,7.14,7.14,0,0,0,3.76-.89A7.41,7.41,0,0,0,178,52.41h.67l-1,5Z" transform="translate(0 0)"/><path class="cls-3" d="M188.85,48.46q1-.63,1-2.91a5.13,5.13,0,0,0-.39-2.2A2.46,2.46,0,0,0,187,42a2.21,2.21,0,0,0-1.26.24,1,1,0,0,0-.3.8v6.11a6.85,6.85,0,0,0,3.37-.66m-9.38,8.34a2.77,2.77,0,0,0,1.67-.46,2.41,2.41,0,0,0,.44-1.74V44c0-.93-.17-1.53-.53-1.81a3.26,3.26,0,0,0-1.58-.39v-.61h7.73a12.28,12.28,0,0,1,3.9.51c1.92.68,2.89,1.9,2.89,3.67a3.64,3.64,0,0,1-1.52,3.09A6,6,0,0,1,190,49.51l5.11,6.84a.9.9,0,0,0,.42.37,1.67,1.67,0,0,0,.55.11v.58h-5l-5.61-7.51h0v4.7a2.47,2.47,0,0,0,.42,1.71,2.45,2.45,0,0,0,1.69.49v.61h-8.12V56.8Z" transform="translate(0 0)"/><path class="cls-3" d="M89.15,19.38A10.41,10.41,0,1,0,99.56,29.79,10.42,10.42,0,0,0,89.15,19.38m0,21.48a11.08,11.08,0,1,1,11.08-11.07A11.09,11.09,0,0,1,89.15,40.86" transform="translate(0 0)"/><path class="cls-3" d="M95.65,21.08s-4.54-1-5.56-.68-2.85.75-2.57,2.38,1.83,2.51,3.13,3.13a20.62,20.62,0,0,1,4,2.22,5.26,5.26,0,0,1,1.8,4.2,5.3,5.3,0,0,1-3.32,5.51A12.38,12.38,0,0,1,86,38.91c-1-.11-1.42.51-1.92.44-1.47-.19-1.51-.91-1.51-.91l-1.9-2.31L80,35.07a9.08,9.08,0,0,0,5.24,3c3.05.34,5.91.09,7-.72a3.74,3.74,0,0,0,1.51-4.09c-.78-2.73-2-3.11-3.53-3.93s-3.91-1.66-4.76-3.52a3.63,3.63,0,0,1,.56-4c1.08-1.15,3.25-1.83,6-2.37Z" transform="translate(0 0)"/></g></g></g></svg>